<svg fill="none" height="128" viewBox="0 0 128 128" width="128" xmlns="http://www.w3.org/2000/svg"><path d="m0 0h128v128h-128z" fill="#fff"/><path d="m108.506 25.5217h13.705c2.672 0 5.294 2.6756 5.789 5.7971v83.8842c0 3.667-2.622 5.797-5.789 5.797h-116.42206c-3.66138 0-5.78894-2.626-5.78894-5.252v-84.4292c0-3.6665 2.12756-5.7971 5.78894-5.7971h13.70546v-13.7246c0-3.66654 2.6223-5.7971 5.7889-5.7971h26.8668c3.6612 0 5.7889 2.62603 5.7889 5.7971v13.7246h12.122v-13.7246c0-3.66654 2.6224-5.7971 5.7889-5.7971h26.8671c3.661 0 5.789 2.62603 5.789 5.7971z" fill="#ed793e"/></svg>