<svg fill="none" height="128" viewBox="0 0 128 128" width="128" xmlns="http://www.w3.org/2000/svg" xmlns:xlink="http://www.w3.org/1999/xlink"><clipPath id="a"><path d="m0 0h128v128h-128z"/></clipPath><path d="m0 0h128v128h-128z" fill="#fff"/><g clip-path="url(#a)"><path d="m16.192 0h95.616c4.294 0 8.413 1.70594 11.449 4.74253 3.037 3.03659 4.743 7.15507 4.743 11.44947v111.808h-111.808c-4.2944 0-8.41288-1.706-11.44947-4.743-3.03659-3.036-4.74253-7.155-4.74253-11.449v-95.616c0-4.2944 1.70594-8.41288 4.74253-11.44947s7.15507-4.74253 11.44947-4.74253z" fill="#a4286a"/><path d="m128 16.192c.001-4.2893-1.701-8.40352-4.731-11.43937-3.03-3.03586-7.141-4.74516927-11.43-4.75263l-72.3485 128h88.5095z" fill="#6c2548"/><path d="m19.0463 85.8112v8.9344c5.5296-.2304 9.856-2.048 13.5168-5.76s7.0144-9.728 10.2144-18.6624l23.7056-63.48799h-11.4688l-19.0976 53.04319-9.472-29.7472h-10.496l13.9264 35.7888c1.3414 3.4408 1.3414 7.26 0 10.7008-1.408 3.6352-3.9424 7.9104-10.8288 9.1904z" fill="#fff"/><path d="m106.547 9.19043-24.5245 43.39197c5.7529 3.2341 12.5538 4.0543 18.9105 2.2805 6.357-1.7738 11.751-5.9967 14.998-11.7422s4.083-12.5445 2.324-18.9054c-1.759-6.361-5.97-11.7644-11.708-15.02487z" fill="#77b227"/><path d="m72.576 18.6368c-3.2491 5.7522-4.0802 12.5594-2.3106 18.9243 1.7696 6.365 5.9949 11.7664 11.7467 15.0161l24.5349-43.38684c-2.846-1.61156-5.983-2.64664-9.2293-3.04614-3.2467-.3995-6.5402-.15559-9.6926.71779s-6.1019 2.35913-8.6801 4.37239c-2.5782 2.0133-4.7345 4.5147-6.346 7.3614z" fill="#9fda4f"/><path d="m75.3921 64.1281-16.0256 28.3647c3.7614 2.1252 8.2129 2.669 12.3753 1.512 2.061-.5729 3.989-1.5461 5.6739-2.8641s3.0937-2.955 4.146-4.8174c1.0522-1.8625 1.7273-3.914 1.9868-6.0374.2594-2.1233.098-4.277-.4749-6.338s-1.5461-3.989-2.8641-5.6739-2.955-3.0937-4.8174-4.1459z" fill="#f49a00"/><path d="m75.4433 64.1792c-1.8608-1.0539-3.9109-1.731-6.0334-1.9927-2.1225-.2616-4.2757-.1026-6.3367.4679-4.1624 1.1522-7.6966 3.9108-9.8251 7.6688s-2.677 8.2077-1.5248 12.3701 3.9108 7.6966 7.6688 9.8251z" fill="#fec228"/><path d="m51.9425 105.651-9.6256 17.024c2.2487 1.158 4.8584 1.399 7.2813.673 2.4228-.725 4.4703-2.361 5.7126-4.564s1.5828-4.802.9499-7.25c-.6328-2.449-2.1897-4.557-4.3438-5.883z" fill="#ed261f"/><path d="m51.9425 105.677c-2.191-1.389-4.8438-1.85-7.3749-1.282-2.531.567-4.733 2.117-6.1214 4.308-1.3885 2.191-1.8497 4.843-1.2822 7.375.5674 2.531 2.1171 4.733 4.3081 6.121.2714.172.553.33.8397.476z" fill="#ff4e47"/></g></svg>