<svg fill="none" height="333" viewBox="0 0 556 333" width="556" xmlns="http://www.w3.org/2000/svg"><g fill="#000"><path d="m316.922 76.4467c-12.14 6.6866-23.085 12.6746-34.429 18.962-1.095-4.5908 1.095-6.986 3.98-8.5828 8.757-4.99 17.613-9.98 26.568-14.5708 3.085-1.5968 4.478-3.493 5.174-6.986 1.592-7.5848 3.98-15.0698 6.269-22.4549.498-1.6966 2.09-3.0938 3.184-4.5908.398.1996.896.3992 1.294.5988-2.189 9.0817-4.379 18.1635-6.966 28.6425 60.4-26.3471 118.51-53.4927 181.298-67.4647.298.598799.497 1.0978.796 1.6966-1.592.7984-3.085 1.8962-4.776 2.3952-59.206 17.964-115.724 42.6145-172.044 67.7641-3.781 1.6966-5.473 3.8922-5.672 8.1836-.696 17.7644-3.084 35.6285 2.289 52.9935 1.99 6.587 4.876 13.174 8.557 18.862 6.866 10.579 18.906 12.276 29.056 4.891 7.065-5.09 12.04-11.877 15.423-19.761.597-1.397.497-3.293.497-4.89-.895-23.553 6.07-44.9099 17.215-65.1693.497-.8982.995-1.8962 1.691-2.3952 1.592-1.1976 3.98-3.2934 5.075-2.7944 1.692.7984 3.582 3.2934 3.682 5.0898.298 6.7864.696 13.6726-.498 20.2594-2.885 16.2677-10.149 30.8377-18.508 44.9097-2.786 4.791-2.388 8.683 1.692 12.375 3.582 3.194 7.861 2.795 10.945 0 4.677-4.291 9.055-9.181 12.637-14.371 8.558-12.375 11.245-25.948 6.269-40.6183-1.492-4.3912-2.487-8.982-3.283-13.5728-.398-2.1956-.1-4.5908.796-6.986 5.373 6.986 6.268 15.3692 9.353 23.3532.299-1.3972.597-2.6946.896-4.0918 1.691-8.982 3.184-17.964 5.273-26.8462.597-2.2954 3.085-4.1916 4.677-6.1876 1.393 2.1956 3.682 4.2914 3.98 6.5868 1.194 10.6786 1.891 21.5568 2.786 32.2354.1 1.5968.199 3.1936 1.095 4.8902.398-1.8962.796-3.6926 1.095-5.5888 1.99-10.0798 3.88-20.2594 5.87-30.3392.299-1.2974.398-2.7944 1.194-3.7924 1.393-1.7964 3.383-4.8902 4.777-4.6906 2.089.1996 4.975 2.495 5.671 4.491 2.687 8.3832 4.777 16.966 6.767 25.449 1.89 8.0838 3.383 16.2671 4.875 24.4511.398 2.195.1 4.391.1 6.686-.597.2-1.095.4-1.692.599-1.194-2.096-3.084-3.992-3.582-6.287-2.487-10.8783-4.577-21.7565-6.965-32.6347-1.095-4.99-2.488-9.8802-3.781-14.8702-.498 0-.896-.0998-1.393-.0998-.697 2.1956-1.692 4.3912-2.09 6.5868-2.985 17.3652-5.871 34.7299-8.756 52.0959-.398 2.095-.697 4.291-1.593 6.287-.497 1.098-2.288 2.794-2.985 2.495-1.293-.499-2.587-1.896-3.084-3.194-.597-1.696-.299-3.592-.398-5.389-.597-17.764-1.194-35.4287-1.791-53.1931-.398-.0998-.896-.0998-1.294-.1996-.398 1.0978-.895 2.1956-1.094 3.3932-3.384 17.6646-4.976 35.5285-4.478 53.5925.099 3.792-.199 7.685-.697 11.377-.199 1.098-1.691 2.096-2.587 3.094-.995-1.098-2.686-2.096-2.786-3.293-.597-4.192-.697-8.483-.896-12.376-4.378 6.787-8.358 13.573-13.035 19.96-2.089 2.795-5.273 5.09-8.358 6.787-7.463 4.092-12.637 2.195-19.901-6.188-4.378 4.99-8.458 10.479-13.334 15.17-11.741 11.177-28.756 9.78-38.209-3.393-3.981-5.589-6.966-12.176-9.055-18.663-5.174-16.267-4.179-33.134-3.383-49.9997.099-3.0938.298-6.0878.597-10.6786zm65.772 49.5003c11.344-15.069 22.289-46.4065 16.617-57.2847-10.448 17.964-15.92 37.0257-16.617 57.2847z"/><path d="m132.043 242.713c1.095-1.696 1.692-2.295 1.99-2.994 3.682-11.976 5.871-24.151 5.473-36.726-.299-12.076.199-24.251.398-36.327 0-.998.099-2.096.597-2.894 1.094-1.597 2.488-2.994 3.781-4.491 1.194 1.696 3.383 3.493 3.383 5.189-.298 11.577-.796 23.253-1.691 34.83-.896 10.779 2.388 20.06 9.552 27.844 5.075 5.589 7.861 5.689 14.13 1.497.696-.399 1.393-.798 2.089-1.097 2.189 3.992-.099 8.283-5.074 9.381-4.876 1.197-9.354-.1-12.936-3.493-3.483-3.393-6.468-7.385-9.95-11.477-.697 3.493-1.195 6.986-2.09 10.379-.896 3.693-1.791 7.485-3.284 10.978-2.487 5.888-8.856 6.287-12.338.898-1.592-2.495-2.687-5.389-3.383-8.183-3.085-12.276-5.871-24.551-8.856-36.827-.697-2.794-1.592-5.489-2.488-8.283-.398 0-.895.1-1.294.1-.696 4.191-1.691 8.283-1.89 12.475-.995 17.964-.498 35.828 3.582 53.592.299 1.497-.895 3.394-1.393 5.09-1.592-1.098-4.179-1.996-4.577-3.393-3.085-11.677-5.771-23.553-8.5576-35.329-.2985-1.198-.597-2.395-1.6916-3.593-1.0945 6.387-1.9901 12.874-3.4826 19.261-1.0946 4.491-2.5872 8.982-4.7763 12.974-3.4826 6.088-10.0499 7.286-15.1247 2.396-3.8806-3.693-7.2638-8.284-9.4529-13.174-10.7465-23.752-16.4183-49.102-22.289-74.351-.6966-3.094-1.3931-6.088-2.2886-10.179-1.6916 2.095-2.8857 3.393-3.8807 4.89-9.5525 13.972-19.1049 28.044-28.65734 42.015-.59703.799-.89554 1.897-1.69158 2.495-.99505.899-2.28861 1.497-3.482661 2.196-.099505-1.497-.696533-3.293-.099505-4.291 6.567306-10.779 13.234086-21.557 20.099886-32.036 4.1792-6.387 9.1545-12.275 13.3337-18.663 1.4925-2.395 2.3881-5.788 2.0896-8.582-.6966-8.583-2.2886-17.166-3.1842-25.749-.2985-2.595.597-5.289.8956-7.984.6965 0 1.2935-.1 1.99-.1 1.7911 10.579 3.4827 21.258 5.4728 32.934 1.8906-2.095 2.9851-3.393 4.1792-4.69 9.8509-10.08 19.8014-20.16 29.6524-30.14 1.393-1.397 2.9851-2.794 4.7762-3.593 1.393-.598 3.1841-.299 4.8757-.299-.6965 1.297-1.0945 2.894-2.0896 3.992-12.4381 12.874-25.0751 25.649-37.4137 38.623-1.3931 1.497-2.3881 4.59-1.9901 6.586 5.4727 26.846 11.642 53.593 21.7915 79.241 2.0896 5.29 5.1742 10.479 8.6569 14.97 3.8807 5.09 7.6618 4.591 10.05-1.397 2.6866-6.786 4.7762-13.772 6.2687-20.958 3.6817-18.662 2.7862-37.225-1.0945-55.888-2.4876-11.676-3.5822-23.652-4.7762-35.528-.2985-2.895.796-7.984 2.5871-8.583 4.1792-1.597 6.1693 2.794 7.8609 5.988 5.0747 9.68 6.0702 20.459 6.2692 31.038.099 11.077-1.1945 22.155-1.3935 33.333-.0995 5.588.9955 11.077 2.2885 16.566.697-6.487 1.393-13.073 2.289-19.56.199-1.996.398-4.192 1.393-5.789 1.393-2.395 3.482-4.291 5.274-6.387 1.99 1.996 4.378 3.693 5.771 6.088 1.492 2.694 2.089 5.988 2.885 8.982 3.284 12.674 6.468 25.449 9.851 38.123.398 2.296 1.692 4.691 3.085 8.084zm-41.7919-108.782c-.6966.1-1.2936.2-1.9901.3 2.1891 13.672 4.3782 27.445 6.5673 41.117 1.194-14.271 1.4925-28.343-4.5772-41.417z"/><path d="m420.606 290.018c-1.194 1.996-2.189 4.292-3.781 5.988-6.269 6.188-13.334 10.28-22.687 8.783-1.194-.2-2.985.898-3.781 1.996-3.881 4.99-7.165 10.379-11.244 15.269-10.548 12.675-26.667 16.168-39.404.599-11.344-13.772-15.125-30.539-17.811-47.505-1.99-12.575-2.289-25.449-3.384-38.223-.099-1.298-.199-2.595-.298-5.19-6.169 3.893-11.642 7.386-17.115 10.879-2.089 1.397-3.881 3.093-6.07 4.291-.995.499-2.388.299-3.582.399.199-1.297-.099-3.194.697-3.892 4.278-3.693 8.358-8.084 13.333-10.279 10.946-4.791 14.727-12.276 14.031-24.052-.498-7.785 1.393-15.868 2.686-23.653.299-2.096 2.289-3.892 3.483-5.788.398.299.696.499 1.094.798-1.194 13.473-2.388 26.946-3.681 41.816 34.229-17.764 68.658-31.037 105.176-37.824.299.699.498 1.298.796 1.996-1.592.898-3.085 1.996-4.776 2.595-17.612 5.888-35.523 11.078-52.837 17.764-15.125 5.789-29.652 13.274-44.379 20.16-1.592.699-3.383 3.094-3.383 4.691 0 24.75 2.089 49.201 11.144 72.554 2.985 7.685 7.165 14.671 13.732 19.86 6.667 5.19 15.622 5.689 21.493-.199 6.269-6.288 11.244-13.773 16.518-20.958.696-.998.696-2.795.398-4.192-2.886-16.367 3.88-29.441 14.328-41.118.995-1.097 4.379-1.596 5.175-.798 1.194 1.198 2.089 3.992 1.592 5.689-3.185 10.079-6.667 20.159-10.249 30.139-.697 1.996-1.791 3.892-2.986 6.387 5.274 1.497 9.354-.698 13.235-2.994 3.781-2.295 7.363-4.89 10.945-7.285.597.299 1.095.798 1.592 1.297zm-29.553 1.497c.597.2 1.294.4 1.891.599 3.383-8.982 6.766-17.964 10.05-26.946-.498-.199-1.095-.399-1.592-.599-5.473 8.184-9.553 16.966-10.349 26.946z"/><path d="m227.368 221.955c.1-1.697.1-3.393.398-5.09 6.07-25.05 12.239-50 18.21-75.049.398-1.597.099-4.192-.896-5.29-23.085-23.952-46.17-47.7041-69.454-71.3567-3.184-3.2934-7.463-5.5888-10.946-8.5828-1.094-.998-1.492-2.7944-2.189-4.1916 1.592-.1996 3.284-.6986 4.876-.5988.995.0998 1.891 1.1976 2.786 1.8962 20.697 15.5688 37.513 35.1296 55.325 53.6927 7.562 7.884 15.025 15.868 23.184 24.351 3.184-9.98 5.97-19.162 9.155-28.144 7.562-21.6563 15.423-43.2131 23.184-64.7699.299-.7984.498-1.6966.995-2.2954.896-.8982 2.09-1.6966 3.184-2.495.398 1.2974 1.393 2.6946 1.095 3.7924-1.194 4.2914-2.786 8.483-4.279 12.7744-9.254 27.0458-18.408 54.0915-27.662 81.1375-1.194 3.493-.398 5.788 2.189 8.283 11.443 11.078 22.687 22.355 34.031 33.633 1.791 1.796 3.383 3.892 5.074 5.788-.398.599-.895 1.198-1.293 1.697-2.786-1.597-5.871-2.894-8.16-4.99-9.751-8.982-19.303-18.164-28.856-27.445-1.89-1.797-3.184-4.192-4.677-6.288-.696.3-1.293.699-1.99.998-6.965 26.447-14.03 52.795-20.995 79.242-.796-.4-1.493-.499-2.289-.699z"/><path d="m482.299 232.434c-.498 7.285-1.592 14.671-1.393 21.956.298 8.283 1.89 16.467 2.886 24.75.199 1.597.497 3.394.199 4.99-.199 1.298-1.294 2.296-1.991 3.493-1.094-.998-2.985-1.796-3.184-2.994-1.194-6.187-1.99-12.475-2.885-18.762-1.592-10.878-3.184-21.657-4.578-32.535-.398-2.894-.099-5.888-.099-8.782.696-.1 1.393-.2 2.09-.3 1.293 3.194 2.487 6.487 3.98 10.28 1.094-3.194 1.691-6.088 3.084-8.583.796-1.497 2.786-3.593 4.08-3.393 1.393.1 2.886 2.295 3.881 3.792.895 1.397 1.194 3.294 1.99 5.589 1.99-5.09 3.383-9.481 5.473-13.573.796-1.696 2.985-2.694 4.477-3.992 1.294 1.497 3.284 2.894 3.781 4.691 4.478 19.062 6.468 38.323 3.682 57.884-.099.698-.099 1.497-.398 1.896-1.194 1.497-2.587 2.994-3.881 4.391-.398-1.597-1.293-3.393-1.094-4.89 1.99-16.866 1.194-33.533-2.09-50.1-.199-.798-.298-1.596-1.393-2.794-.597 1.497-1.592 2.894-1.791 4.391-1.691 11.178-3.085 22.355-4.776 33.433-.498 2.894 1.094 8.084-3.582 7.785-4.478-.3-1.99-4.99-2.09-7.885-.398-8.982-.696-17.864-1.194-26.846-.099-1.397-.696-2.694-1.094-4.092-.896.1-1.493.1-2.09.2z"/><path d="m478.219 83.2331c.199 4.2914.398 7.5848.498 10.978-.498.1996-.995.2994-1.493.499-1.194-2.2954-2.985-4.491-3.582-6.986-4.875-17.964-2.288-35.3292 5.672-51.7961 4.577-9.3812 12.04-9.5808 17.015-.3992 9.553 17.5647 12.836 36.2273 6.17 55.6883-1.692 4.99-3.483 10.7779-10.05 10.8779-6.568.1-9.155-5.1893-11.344-10.2791-.995-2.3952-1.691-4.99-2.886-8.5828zm4.777-35.7284c.398.1996.796.499 1.293.6986.1.2994.199.5988.199.8982-.398 1.7964-.895 3.5928-1.194 5.3892-2.189 12.8742-1.691 25.5488 3.881 37.5248.895 1.996 3.284 4.0918 5.274 4.3912 1.293.1996 3.781-2.6946 4.378-4.5908 1.691-5.8882 3.482-11.8762 3.781-17.8642.597-12.6746-2.488-24.7504-9.055-35.6285-1.492-2.3952-3.781-4.99-5.871-1.0978-3.283 6.1875-5.671 12.8741-8.358 19.2613.398.1996.796.2994 1.194.499 1.493-3.1936 2.985-6.3872 4.478-9.481z"/><path d="m504.091 102.794c8.159-11.9762 21.294-18.4632 32.339-27.545-4.677-1.497-9.155-2.3952-13.334-4.2914-12.239-5.3892-17.612-15.5687-14.925-28.6425 1.89-9.3812 5.87-18.0638 12.537-25.0498 1.791-1.8962 4.08-4.1916 6.368-4.3912 2.687-.2994 6.369.6986 8.16 2.5948 2.388 2.5948 1.99 6.2874-1.095 9.0818-.497-.2994-.895-.3992-1.094-.6986-.995-1.996-1.99-3.8922-2.886-5.8882-2.09 1.2974-4.876 1.996-5.97 3.8922-3.781 6.1876-7.861 12.475-9.951 19.2614-3.781 12.1756 2.687 22.5547 14.926 26.0477 6.866 1.996 13.632 1.7964 20.597-.2994 1.493-.499 3.483.6986 5.274 1.0978-.796 1.5968-1.094 3.8922-2.388 4.7904-12.637 9.0818-25.374 17.964-38.21 26.8462-2.786 1.9958-5.97 3.3928-9.055 5.0898-.497-.599-.895-1.198-1.293-1.896z"/><path d="m442 241.815c-1.393.898-2.786 1.597-4.08 2.595-12.14 9.182-13.533 22.056-11.742 35.828.597 4.291 3.483 5.289 6.767 2.196 8.856-8.683 14.229-19.062 13.731-31.836-.199-4.292-.696-8.683-.398-12.875.199-1.796 2.289-3.393 3.483-5.089 1.095 1.596 2.886 3.193 3.184 4.89.498 3.393.299 6.986.1 10.379-.398 7.884 1.194 15.369 5.273 21.956 2.09 3.493 5.772 5.988 8.856 9.082-3.482 5.688-8.259 2.495-17.313-12.176-2.886 4.79-5.672 9.88-8.856 14.671-1.692 2.395-3.881 4.59-6.369 6.187-5.572 3.793-11.741 1.597-13.035-5.09-3.084-15.568.597-29.341 12.438-40.319 1.592-1.497 4.279-1.896 6.468-2.794.398.898.995 1.597 1.493 2.395z"/></g></svg>