<svg fill="none" height="32" viewBox="0 0 32 32" width="32" xmlns="http://www.w3.org/2000/svg" xmlns:xlink="http://www.w3.org/1999/xlink"><clipPath id="a"><path d="m0 0h32v32h-32z"/></clipPath><g clip-path="url(#a)"><path d="m4.30006-.00001626h23.49974c.558.00650723 1.1094.12254826 1.6226.34149926.5131.218949.9779.536518 1.368.934567.39.39806.6975.8688.905 1.38535.2075.51654.3109 1.06878.3043 1.62516v23.42664c.004.564-.1045 1.1233-.3192 1.6451-.2147.5219-.5313.996-.9313 1.3949-.4001.3988-.8757.7143-1.3992.9284-.5235.214-1.0845.3222-1.6502.3182h-23.39974c-1.14788-.0311-2.23856-.5062-3.04114-1.325-.802574-.8186-1.25404097-1.9166-1.25881386-3.0613v-23.32694c-.00398926-.56403.10450886-1.12323.31918786-1.64509.21468-.52187.531261-.996.931336-1.39484.40009-.398842.8757-.714438 1.3992-.92845.52349-.214013 1.08443-.32217313 1.65023-.31819626z" fill="#1d1d1d"/><g fill="#fff"><path clip-rule="evenodd" d="m8.60865 16.0873c-.02986-.0296-.06056-.0621-.0921-.098-.74104-.8413-6.48417-8.41315-3.79787-11.12408 1.84862-1.86556 6.37312-.01249 11.09812 3.67039 2.2966-2.08173 8.9376-6.25998 11.411-3.76385 2.1924 2.21248-.6689 7.44184-3.7794 11.21754 3.1106 3.7757 5.972 9.0052 3.7796 11.2177-2.4511 2.4735-8.9947-1.6071-11.3477-3.7069-4.748 3.7563-9.30484 5.6097-11.16176 3.8004-2.6863-2.6175 2.96419-10.2828 3.79787-11.1242.0321-.0324.06283-.062.09224-.089zm-.46298-7.76324c-.04079 1.60568.99649 3.53774 2.45503 5.46874-.0231-.0467-.0464-.0937-.0464-.1404.7203-.727 1.814-1.7805 2.8424-2.7699-1.9626-1.53246-3.88599-2.75509-5.24129-2.9792-.00277.13483-.00603.27503-.00974.42076zm2.39693 9.89664c.4664.4701 1.7958 1.8082 3.02 3.0256-2.121 1.6729-4.21363 3.0073-5.61224 3.1362-.21552-.4728.33533-3.2577 2.59224-6.1618zm13.6737 5.9229c.2074-1.6295-1.3222-3.8429-2.8778-5.7633-1.0353 1.1378-2.1117 2.2114-3.1989 3.1999 2.8256 2.1757 5.5369 2.7496 6.0767 2.5634zm-2.744-10.3795c1.5932-1.8635 3.1788-3.91575 2.8265-5.61562-.1583-.00314-.3243-.00699-.4982-.01149-1.6037-.0415-3.5361 1.02239-5.4729 2.51281 1.07.9685 2.1279 2.0139 3.1446 3.1143zm-5.7156-.9205c1.3207 1.1561 2.5579 2.3275 3.5364 3.2859-.9796.9596-2.2186 2.1326-3.541 3.29-1.0383-1.0073-2.1818-2.1529-3.2597-3.3518.9813-1.013 2.0955-2.1425 3.2643-3.2241z" fill-rule="evenodd" opacity=".05"/><path d="m24.932 11.0264c-1.5052-3.16899-4.928-6.0264-8.932-6.0264-4.5052 0-7.74358 3.52428-8.93202 6.0264-.09064.1909-.09064.4125 0 .6034 1.50526 3.169 4.92802 6.0264 8.93202 6.0264 4.5052 0 7.7436-3.5244 8.932-6.0264.0907-.1909.0907-.4125 0-.6034zm-8.932 5.2236c-3.2393 0-5.9251-2.1348-7.5005-4.9219 1.5688-2.77567 4.2529-4.92185 7.5005-4.92185 3.239 0 5.9251 2.13451 7.5005 4.92185-1.5688 2.7756-4.2529 4.9219-7.5005 4.9219zm0-8.4375c-1.9385 0-3.5156 1.57709-3.5156 3.5156 0 1.9386 1.5771 3.5157 3.5156 3.5157s3.5156-1.5771 3.5156-3.5157c0-1.93851-1.5771-3.5156-3.5156-3.5156zm0 5.625c-1.163 0-2.1094-.9463-2.1094-2.1094 0-1.1632.9464-2.10935 2.1094-2.10935 1.1632 0 2.1094.94615 2.1094 2.10935 0 1.1631-.9462 2.1094-2.1094 2.1094z"/><path d="m15.05 26.1c.4 0 .6.17.6.51 0 .3533-.2.53-.6.53h-3.38c-.4067 0-.61-.1767-.61-.53 0-.34.2033-.51.61-.51h1.04v-4.56l-.96.59c-.0933.0533-.1767.08-.25.08-.14 0-.26-.06-.36-.18-.0933-.12-.14-.2533-.14-.4 0-.1933.0867-.3433.26-.45l1.55-.96c.2-.12.39-.18.57-.18.1867 0 .3367.0567.45.17s.17.27.17.47v5.42z"/><path d="m21.0161 26.1c.4 0 .6.17.6.51 0 .3533-.2.53-.6.53h-3.8c-.1733 0-.31-.05-.41-.15-.1-.1067-.15-.2367-.15-.39 0-.2.0767-.38.23-.54l2.28-2.45c.28-.3067.4833-.5867.61-.84.1333-.26.2-.5167.2-.77 0-.3133-.09-.5533-.27-.72s-.4367-.25-.77-.25c-.2733 0-.54.0533-.8.16-.2533.1-.51.24-.77.42-.0667.0467-.1333.0867-.2.12-.0667.0267-.1333.04-.2.04-.1133 0-.2133-.0533-.3-.16-.08-.1067-.12-.2333-.12-.38 0-.1.0167-.1867.05-.26.04-.0733.1-.1433.18-.21.2933-.2333.6367-.4167 1.03-.55.3933-.14.7867-.21 1.18-.21.6867 0 1.2333.1733 1.64.52.4133.3467.62.8133.62 1.4 0 .4067-.0867.79-.26 1.15-.1733.3533-.4667.75-.88 1.19l-1.73 1.84z"/></g></g></svg>